HIERARCHY
ROOT RootJoint
{
    OFFSET   0.000000   0.000000   0.000000
    CHANNELS 6 Xposition Yposition Zposition Xrotation Yrotation Zrotation
    JOINT pelvis_lowerback
    {
        OFFSET   0.000000   0.093605   0.000000
        CHANNELS 3 Xrotation Yrotation Zrotation
        JOINT lowerback_torso
        {
            OFFSET   0.000000   0.100000   0.000000
            CHANNELS 3 Xrotation Yrotation Zrotation
            JOINT torso_head
            {
                OFFSET   0.000000   0.282350   0.000000
                CHANNELS 3 Xrotation Yrotation Zrotation
                End Site
                {
                    OFFSET   0.000000   0.192650   0.000000
                }
            }
            JOINT rTorso_Clavicle
            {
                OFFSET  -0.001000   0.157500   0.000000
                CHANNELS 3 Xrotation Yrotation Zrotation
                JOINT rShoulder
                {
                    OFFSET  -0.117647   0.000000   0.000000
                    CHANNELS 3 Xrotation Yrotation Zrotation
                    JOINT rElbow
                    {
                        OFFSET  -0.245000   0.000000   0.000000
                        CHANNELS 3 Xrotation Yrotation Zrotation
                        JOINT rWrist
                        {
                            OFFSET  -0.240000   0.000000   0.000000
                            CHANNELS 3 Xrotation Yrotation Zrotation
                            End Site
                            {
                                OFFSET  -0.116353  -0.002500   0.000000
                            }
                        }
                    }
                }
            }
            JOINT lTorso_Clavicle
            {
                OFFSET   0.001000   0.157500   0.000000
                CHANNELS 3 Xrotation Yrotation Zrotation
                JOINT lShoulder
                {
                    OFFSET   0.117647   0.000000   0.000000
                    CHANNELS 3 Xrotation Yrotation Zrotation
                    JOINT lElbow
                    {
                        OFFSET   0.245000   0.000000   0.000000
                        CHANNELS 3 Xrotation Yrotation Zrotation
                        JOINT lWrist
                        {
                            OFFSET   0.240000   0.000000   0.000000
                            CHANNELS 3 Xrotation Yrotation Zrotation
                            End Site
                            {
                                OFFSET   0.116353  -0.002500   0.000000
                            }
                        }
                    }
                }
            }
        }
    }
    JOINT rHip
    {
        OFFSET  -0.100000  -0.051395   0.000000
        CHANNELS 3 Xrotation Yrotation Zrotation
        JOINT rKnee
        {
            OFFSET   0.000000  -0.410000   0.000000
            CHANNELS 3 Xrotation Yrotation Zrotation
            JOINT rAnkle
            {
                OFFSET   0.000000  -0.390000   0.000000
                CHANNELS 3 Xrotation Yrotation Zrotation
                JOINT rToeJoint
                {
                    OFFSET   0.000000  -0.050000   0.130000
                    CHANNELS 3 Xrotation Yrotation Zrotation
                    End Site
                    {
                        OFFSET  -0.010000   0.002000   0.060000
                    }
                }
            }
        }
    }
    JOINT lHip
    {
        OFFSET   0.100000  -0.051395   0.000000
        CHANNELS 3 Xrotation Yrotation Zrotation
        JOINT lKnee
        {
            OFFSET   0.000000  -0.410000   0.000000
            CHANNELS 3 Xrotation Yrotation Zrotation
            JOINT lAnkle
            {
                OFFSET   0.000000  -0.390000   0.000000
                CHANNELS 3 Xrotation Yrotation Zrotation
                JOINT lToeJoint
                {
                    OFFSET   0.000000  -0.050000   0.130000
                    CHANNELS 3 Xrotation Yrotation Zrotation
                    End Site
                    {
                        OFFSET   0.010000   0.002000   0.060000
                    }
                }
            }
        }
    }
}
MOTION
Frames: 7
Frame Time:   0.008333
 -2.218660   0.847026   5.596330   5.864661   6.105168   2.812976   8.680900  -0.685086  -1.685295   0.812724  -2.457720   0.183213  -9.518883  -2.264788   1.413491   5.819825  -5.449334   8.721678  21.124092   7.504197  45.766489  -0.022830  30.669421  -0.021951   3.141568   4.300944   0.888623   3.599422   4.092381  -6.875996   8.369187  -2.920140 -42.586139  -0.114801 -62.947614  -0.088396   1.755465  -6.480981   3.233842 -35.681121  -2.313020  -8.486547  99.108817  -0.008207   0.002780   4.538426  -4.816395   5.589196  -4.260864  -0.001457  -0.000502 -15.959215  -4.006683  -1.878565  47.492406  -0.001157  -0.005887 -29.182230  -1.566239   5.586262 -13.954747  -0.005482   0.006745
 -2.219261   0.851319   5.615891   5.820920   6.544151   2.563105   8.537006  -1.095382  -1.347492   0.682810  -2.729646   0.377324  -9.415963  -2.036044   1.195012   6.233631  -5.984655   8.481771  22.193324   7.121100  45.900098  -0.022758  29.742482  -0.018301   3.156368   4.049958   0.917854   3.402010   3.870529  -6.666515   7.388863  -3.337104 -42.725766  -0.126449 -65.300513  -0.097819   1.755642  -6.094030   3.385500 -37.444995  -2.357852  -8.202704  96.346533  -0.012716  -0.007371   4.229425  -5.251319   5.691848  -4.112159  -0.001528   0.000117 -14.213518  -4.358116  -1.416220  46.340640  -0.000779  -0.007545 -27.209715  -1.647309   4.995417 -17.749207  -0.022273   0.002433
 -2.220007   0.856440   5.635759   5.876828   6.908319   2.281686   8.288532  -1.474495  -1.005968   0.527865  -2.982152   0.579273  -9.308362  -1.817482   0.985450   6.666307  -6.539616   8.202188  23.230833   6.740373  46.049352  -0.022114  28.887804  -0.015901   3.175400   3.907888   1.040870   3.242357   3.694316  -6.433790   6.487680  -3.749142 -42.907290  -0.135711 -67.585700  -0.105347   1.768282  -6.157551   3.388709 -39.086454  -2.396410  -7.917759  92.959577  -0.016272  -0.016611   3.909589  -5.659166   5.783485  -3.980563  -0.001656   0.000593 -12.469467  -4.632703  -0.887928  44.965848  -0.000254  -0.009275 -24.728610  -1.711299   4.513186 -22.117797  -0.034544  -0.002903
 -2.220948   0.861756   5.655795   5.996583   7.242538   1.955907   7.993220  -1.850053  -0.651117   0.353558  -3.237041   0.791147  -9.210463  -1.613628   0.792382   7.095768  -7.093552   7.890547  24.224690   6.361688  46.184999  -0.020915  28.087730  -0.014381   3.193671   3.788091   1.182268   3.097072   3.540764  -6.168082   5.646534  -4.131747 -43.073575  -0.143331 -69.741886  -0.110864   1.787529  -6.393730   3.369964 -40.665805  -2.442743  -7.639752  89.537513  -0.018495  -0.023257   3.599784  -6.039227   5.868692  -3.869778  -0.001716   0.000891 -10.725134  -4.871191  -0.285481  43.493670   0.000482  -0.010832 -21.894806  -1.767214   4.124421 -26.955722  -0.042010  -0.008709
 -2.222081   0.866964   5.675918   6.146006   7.543067   1.593689   7.692373  -2.217113  -0.291662   0.175874  -3.489746   1.010541  -9.121918  -1.424111   0.614645   7.510498  -7.632641   7.559970  25.168671   5.990494  46.301863  -0.019391  27.336978  -0.013336   3.210727   3.662744   1.305748   2.956210   3.401968  -5.872632   4.854742  -4.483330 -43.212690  -0.149214 -71.765027  -0.114588   1.811230  -6.690114   3.382576 -42.197035  -2.487792  -7.374595  86.276510  -0.019625  -0.027165   3.306978  -6.393555   5.948464  -3.778664  -0.001696   0.001036  -9.016675  -5.126003   0.376100  41.952347   0.001928  -0.011524 -18.860694  -1.858808   3.820452 -31.963323  -0.045551  -0.010020
 -2.223396   0.871884   5.696105   6.306878   7.831987   1.197351   7.401513  -2.579086   0.071440   0.005741  -3.741061   1.236682  -9.039989  -1.248297   0.450753   7.907830  -8.152871   7.222468  26.062498   5.629917  46.403214  -0.017736  26.632061  -0.012490   3.226728   3.525657   1.405666   2.817090   3.273616  -5.557064   4.107508  -4.807196 -43.326760  -0.153553 -73.660171  -0.117238   1.838318  -7.010216   3.432489 -43.677921  -2.533270  -7.130623  83.230615  -0.020481  -0.029039   3.032582  -6.723903   6.023479  -3.705562  -0.001600   0.001075  -7.353973  -5.367228   1.090639  40.407391   0.003439  -0.011827 -15.696807  -1.952403   3.568475 -36.937892  -0.046408  -0.010939
 -2.224872   0.876478   5.716368   6.466730   8.118737   0.784845   7.128384  -2.933608   0.423941  -0.151943  -3.989183   1.462380  -8.963394  -1.085150   0.299190   8.286414  -8.652183   6.893626  26.906402   5.283426  46.495747  -0.016095  25.969928  -0.011698   3.242113   3.374475   1.487293   2.681126   3.154256  -5.235650   3.403597  -5.105723 -43.421524  -0.156603 -75.432225  -0.119522   1.867667  -7.334366   3.511603 -45.100185  -2.570427  -6.921242  80.400537  -0.021353  -0.029566   2.776212  -7.032256   6.093776  -3.647597  -0.001453   0.001047  -5.748655  -5.582311   1.834603  38.938622   0.004692  -0.011850 -12.634684  -2.041711   3.349709 -40.763664  -0.043419  -0.011784
